<svg width="18" height="18" viewBox="0 0 18 18" fill="none" xmlns="http://www.w3.org/2000/svg">
<path d="M4.14175 14C4.31392 13.512 4.6332 13.0895 5.05558 12.7906C5.47796 12.4918 5.98265 12.3313 6.50008 12.3313C7.01751 12.3313 7.5222 12.4918 7.94458 12.7906C8.36697 13.0895 8.68625 13.512 8.85841 14H17.3334V15.6667H8.85841C8.68625 16.1546 8.36697 16.5771 7.94458 16.876C7.5222 17.1749 7.01751 17.3354 6.50008 17.3354C5.98265 17.3354 5.47796 17.1749 5.05558 16.876C4.6332 16.5771 4.31392 16.1546 4.14175 15.6667H0.666748V14H4.14175ZM9.14175 8.16665C9.31392 7.67871 9.6332 7.25618 10.0556 6.95731C10.478 6.65844 10.9827 6.49794 11.5001 6.49794C12.0175 6.49794 12.5222 6.65844 12.9446 6.95731C13.367 7.25618 13.6862 7.67871 13.8584 8.16665H17.3334V9.83332H13.8584C13.6862 10.3213 13.367 10.7438 12.9446 11.0427C12.5222 11.3415 12.0175 11.502 11.5001 11.502C10.9827 11.502 10.478 11.3415 10.0556 11.0427C9.6332 10.7438 9.31392 10.3213 9.14175 9.83332H0.666748V8.16665H9.14175ZM4.14175 2.33332C4.31392 1.84538 4.6332 1.42285 5.05558 1.12398C5.47796 0.825108 5.98265 0.664612 6.50008 0.664612C7.01751 0.664612 7.5222 0.825108 7.94458 1.12398C8.36697 1.42285 8.68625 1.84538 8.85841 2.33332H17.3334V3.99999H8.85841C8.68625 4.48793 8.36697 4.91046 7.94458 5.20933C7.5222 5.5082 7.01751 5.6687 6.50008 5.6687C5.98265 5.6687 5.47796 5.5082 5.05558 5.20933C4.6332 4.91046 4.31392 4.48793 4.14175 3.99999H0.666748V2.33332H4.14175Z" fill="#2F80ED"/>
</svg>
