<svg width="24" height="24" viewBox="0 0 24 24" fill="none" xmlns="http://www.w3.org/2000/svg">
<path d="M12.0002 0.333313C18.4437 0.333313 23.6668 5.55648 23.6668 12C23.6668 18.4435 18.4437 23.6666 12.0002 23.6666C5.55666 23.6666 0.333496 18.4435 0.333496 12C0.333496 5.55648 5.55666 0.333313 12.0002 0.333313ZM8.29366 15.9001C7.83283 15.3436 7.26 15.1453 6.56816 15.3063L6.39316 15.3541L5.70483 16.5395C5.57501 16.7508 5.53202 17.0042 5.58484 17.2465C5.63767 17.4889 5.78222 17.7014 5.98822 17.8395C6.19422 17.9776 6.44568 18.0307 6.68993 17.9876C6.93417 17.9444 7.15226 17.8085 7.2985 17.6081L7.37083 17.4996L8.2925 15.9001H8.29366ZM13.4118 8.10331C12.8425 8.57465 12.2685 9.96648 13.0735 11.3548L16.6202 17.4985C16.743 17.7072 16.94 17.8619 17.172 17.9316C17.4039 18.0013 17.6536 17.9809 17.8711 17.8745C18.0887 17.7681 18.258 17.5835 18.3453 17.3576C18.4327 17.1317 18.4315 16.8812 18.3422 16.6561L18.285 16.5395L17.3493 14.9155H18.7377C18.8638 14.9158 18.9887 14.8912 19.1053 14.843C19.2219 14.7948 19.3278 14.7241 19.4169 14.6349C19.506 14.5456 19.5766 14.4397 19.6246 14.323C19.6726 14.2064 19.6971 14.0814 19.6967 13.9553C19.6973 13.7214 19.6121 13.4953 19.4573 13.3199C19.3026 13.1445 19.0889 13.0318 18.8567 13.0033L18.7365 12.9963H16.2398L13.6802 8.56648L13.4118 8.10448V8.10331ZM13.7362 4.55198C13.5347 4.43625 13.2982 4.39731 13.0702 4.44234C12.8423 4.48737 12.6383 4.61334 12.496 4.79698L12.4237 4.90431L11.9955 5.64281L11.5767 4.90431C11.4538 4.6956 11.2568 4.54092 11.0249 4.47121C10.7929 4.4015 10.5433 4.42189 10.3257 4.5283C10.1082 4.63471 9.93881 4.8193 9.85148 5.04518C9.76415 5.27106 9.76529 5.52157 9.85466 5.74665L9.91183 5.86331L10.8895 7.56315L7.757 12.9916H5.3105C5.18447 12.9913 5.05963 13.0159 4.94314 13.064C4.82665 13.1121 4.72081 13.1827 4.63169 13.2718C4.54258 13.361 4.47195 13.4668 4.42387 13.5833C4.37578 13.6998 4.35119 13.8246 4.3515 13.9506C4.3515 14.4418 4.7155 14.8443 5.19033 14.9038L5.3105 14.9108H14.0372C14.4338 14.1641 13.9672 13.1036 13.0922 12.9998L12.951 12.9916H9.9725L14.0885 5.86331C14.2157 5.6427 14.25 5.3806 14.1839 5.13468C14.1178 4.88876 13.9568 4.67916 13.7362 4.55198V4.55198Z" fill="#2F80ED"/>
</svg>
