<svg width="22" height="24" viewBox="0 0 22 24" fill="none" xmlns="http://www.w3.org/2000/svg">
<path d="M1.2105 0.116333L13.0907 12L1.21167 23.8837C1.00043 23.7949 0.820168 23.6456 0.693541 23.4546C0.566914 23.2636 0.499579 23.0395 0.500002 22.8103V1.18967C0.500091 0.960791 0.567499 0.736997 0.693833 0.546148C0.820168 0.355298 0.999847 0.205823 1.2105 0.116333ZM13.9155 12.8248L16.6012 15.5105L3.84134 22.899L13.9155 12.8248ZM17.6477 9.09383L20.9225 10.9908C21.0993 11.0934 21.246 11.2406 21.3481 11.4177C21.4501 11.5948 21.5038 11.7956 21.5038 12C21.5038 12.2044 21.4501 12.4052 21.3481 12.5823C21.246 12.7594 21.0993 12.9066 20.9225 13.0092L17.6465 14.9062L14.7403 12L17.6477 9.09383ZM3.84134 1.101L16.6023 8.48833L13.9155 11.1752L3.84134 1.101Z" fill="#2F80ED"/>
</svg>
