<svg width="24" height="24" viewBox="0 0 24 24" fill="none" xmlns="http://www.w3.org/2000/svg">
<path d="M12.0002 0.333313C15.17 0.333313 15.5655 0.34498 16.8092 0.403313C18.0517 0.461646 18.8975 0.65648 19.6418 0.945813C20.4118 1.24215 21.0605 1.64348 21.7092 2.29098C22.3024 2.87419 22.7614 3.57967 23.0543 4.35831C23.3425 5.10148 23.5385 5.94848 23.5968 7.19098C23.6517 8.43465 23.6668 8.83015 23.6668 12C23.6668 15.1698 23.6552 15.5653 23.5968 16.809C23.5385 18.0515 23.3425 18.8973 23.0543 19.6416C22.7623 20.4207 22.3031 21.1264 21.7092 21.709C21.1258 22.302 20.4204 22.761 19.6418 23.0541C18.8987 23.3423 18.0517 23.5383 16.8092 23.5966C15.5655 23.6515 15.17 23.6666 12.0002 23.6666C8.83033 23.6666 8.43483 23.655 7.19116 23.5966C5.94866 23.5383 5.10283 23.3423 4.3585 23.0541C3.57954 22.7619 2.87394 22.3027 2.29116 21.709C1.6978 21.1259 1.23875 20.4204 0.945996 19.6416C0.656663 18.8985 0.461829 18.0515 0.403496 16.809C0.348663 15.5653 0.333496 15.1698 0.333496 12C0.333496 8.83015 0.345163 8.43465 0.403496 7.19098C0.461829 5.94731 0.656663 5.10265 0.945996 4.35831C1.23794 3.57919 1.6971 2.87352 2.29116 2.29098C2.87411 1.69742 3.57966 1.23833 4.3585 0.945813C5.10283 0.65648 5.9475 0.461646 7.19116 0.403313C8.43483 0.34848 8.83033 0.333313 12.0002 0.333313ZM12.0002 6.16665C10.4531 6.16665 8.96934 6.78123 7.87537 7.87519C6.78141 8.96915 6.16683 10.4529 6.16683 12C6.16683 13.5471 6.78141 15.0308 7.87537 16.1248C8.96934 17.2187 10.4531 17.8333 12.0002 17.8333C13.5473 17.8333 15.031 17.2187 16.125 16.1248C17.2189 15.0308 17.8335 13.5471 17.8335 12C17.8335 10.4529 17.2189 8.96915 16.125 7.87519C15.031 6.78123 13.5473 6.16665 12.0002 6.16665ZM19.5835 5.87498C19.5835 5.48821 19.4299 5.11727 19.1564 4.84378C18.8829 4.57029 18.5119 4.41665 18.1252 4.41665C17.7384 4.41665 17.3675 4.57029 17.094 4.84378C16.8205 5.11727 16.6668 5.48821 16.6668 5.87498C16.6668 6.26175 16.8205 6.63269 17.094 6.90618C17.3675 7.17967 17.7384 7.33331 18.1252 7.33331C18.5119 7.33331 18.8829 7.17967 19.1564 6.90618C19.4299 6.63269 19.5835 6.26175 19.5835 5.87498ZM12.0002 8.49998C12.9284 8.49998 13.8187 8.86873 14.475 9.52511C15.1314 10.1815 15.5002 11.0717 15.5002 12C15.5002 12.9282 15.1314 13.8185 14.475 14.4749C13.8187 15.1312 12.9284 15.5 12.0002 15.5C11.0719 15.5 10.1817 15.1312 9.52529 14.4749C8.86891 13.8185 8.50016 12.9282 8.50016 12C8.50016 11.0717 8.86891 10.1815 9.52529 9.52511C10.1817 8.86873 11.0719 8.49998 12.0002 8.49998Z" fill="#2F80ED"/>
</svg>
