<svg width="138" height="33" viewBox="0 0 138 33" fill="none" xmlns="http://www.w3.org/2000/svg">
<path d="M91.3862 30.7842H104.669V30.4281H101.726C99.8174 30.4281 99.6185 30.2302 99.6185 28.3309V3.04676H101.925C105.743 3.04676 107.016 3.79856 107.294 7.59712L107.413 9.25899L108.129 9.17986L107.533 0.0395702L107.095 0.079138L107.294 2.33453H88.7613L88.9204 0.0395702L88.5227 0L87.9262 9.17986L88.6022 9.25899L88.7613 7.59712C88.9602 3.79856 90.3124 3.04676 94.1303 3.04676H96.5165V28.3309C96.5165 30.2302 96.3176 30.4281 94.4087 30.4281H91.3862V30.7842Z" fill="white"/>
<path d="M34.9976 30.7842H24.8562V30.4281H26.2482C28.1572 30.4281 28.356 30.2302 28.356 28.3309V5.77698C28.356 5.10432 27.7992 4.51079 27.0038 4.51079H26.8845L24.5381 4.70863L24.4983 4.47122L27.5606 3.83813C29.1514 3.52158 30.3445 2.57194 30.3445 0.949642V0.791368H30.6627V5.97482C30.6627 6.60792 30.6229 9.21943 30.5831 9.61511H30.9411C31.0604 8.78417 31.299 7.63669 31.5774 6.88489C32.7705 3.79856 34.7192 2.01799 37.861 2.01799C41.9971 2.01799 43.1504 4.31295 43.1504 7.24101V9.61511H43.3095C43.3891 8.30935 44.1049 6.29137 44.3038 5.93525C45.5764 3.52158 47.2865 2.01799 50.1897 2.01799C53.6099 2.01799 56.1155 3.83813 56.1155 7.28058V18.9928C56.1155 27.0647 62.081 32.446 71.0292 32.446C75.8414 32.446 80.8126 30.6655 82.5625 27.0252L82.8807 27.1835C81.0115 30.982 75.8811 33 70.3929 33C59.9731 33 53.0134 26.7482 53.0134 17.4101V7.63669C53.0134 4.43166 51.6612 2.69065 49.8318 2.69065C46.2127 2.69065 43.7868 6.33094 43.7868 11.8309V28.3309C43.7868 30.2302 44.0254 30.4281 45.9343 30.4281H46.9684V30.7842H38.378V30.4281H41.0426V30.3489C40.7642 30.0719 40.6847 29.9532 40.6847 29.3201V7.63669C40.6847 4.43166 39.3325 2.69065 37.5031 2.69065C33.884 2.69065 31.4581 6.33094 31.4581 11.8309V28.3309C31.4581 30.2302 31.6967 30.4281 33.6056 30.4281H34.9976V30.7842Z" fill="#2F80ED"/>
<path fill-rule="evenodd" clip-rule="evenodd" d="M81.966 12.7806H63.9501V13.2554C63.9501 21.0504 66.8931 25.2446 72.5405 25.2446C77.2333 25.2446 80.8524 23.0683 82.6023 19.4281L83.1988 19.8237C81.3296 23.6619 77.5117 25.9568 72.5405 25.9568C65.3421 25.9568 60.5697 21.1295 60.5697 13.8885C60.5697 6.76619 65.3819 2.01799 72.6598 2.01799C78.9832 2.01799 83.1988 5.81655 83.1988 11.4353V11.6331C83.1988 12.3058 82.6818 12.7806 81.966 12.7806ZM71.7186 4.34775C71.7186 4.07103 71.4492 3.85239 71.139 3.8955C69.6789 4.09839 68.3393 4.63366 67.2165 5.41366C66.9755 5.58107 66.9669 5.89479 67.1839 6.08601L70.8047 9.27713C71.142 9.57434 71.7186 9.36384 71.7186 8.94351V4.34775ZM66.1996 7.05338C65.9735 6.85415 65.5998 6.87229 65.4181 7.10413C64.6463 8.08894 64.1187 9.24266 63.9155 10.4924C63.8712 10.7649 64.1186 11 64.431 11H69.3852C69.8621 11 70.101 10.4918 69.7637 10.1946L66.1996 7.05338ZM80.4784 11C80.7908 11 81.0382 10.7649 80.9939 10.4924C80.7907 9.24266 80.2631 8.08894 79.4913 7.10413C79.3096 6.87227 78.9359 6.85415 78.7098 7.05338L75.1457 10.1946C74.8084 10.4918 75.0473 11 75.5242 11H80.4784ZM77.6929 5.41366C77.9339 5.58107 77.9425 5.89479 77.7255 6.08601L74.1047 9.27713C73.7674 9.57434 73.1908 9.36384 73.1908 8.94351V4.34775C73.1908 4.07103 73.4603 3.85239 73.7704 3.8955C75.2305 4.09839 76.5702 4.63366 77.6929 5.41366Z" fill="#2F80ED"/>
<path d="M20.0838 24.4532H11.3344V24.0971H12.3287C14.2377 24.0971 14.4365 23.9388 14.4365 22.0396V4.7482C14.4365 2.84892 14.2377 2.69065 12.3287 2.69065H11.7321V2.33453H20.4815V2.76979H19.6861C17.7772 2.76979 17.5386 2.92806 17.5386 4.82734V22.0396C17.5386 23.9388 17.7772 24.0971 19.6861 24.0971H20.0838V24.4532Z" fill="#2F80ED"/>
<path d="M21.1179 30.7842H0V30.4281H1.39195C3.30091 30.4281 3.49976 29.9532 3.49976 28.054V4.7482C3.49976 2.84892 3.30091 2.69065 1.39195 2.69065H0V2.33453H9.34595V2.69065H8.7494C6.84044 2.69065 6.60182 2.84892 6.60182 4.7482V27.9748C6.60182 28.8453 6.20412 29.5576 5.72688 30.0324V30.0719H15.4705C19.2884 30.0719 21.8337 29.3201 22.1519 25.5216L22.47 21.5648H23.2654L22.47 32.8022L22.0723 32.7626L22.2314 30.4281H22.1917C21.9133 30.705 21.7542 30.7842 21.1179 30.7842Z" fill="#2F80ED"/>
<path d="M109.087 2.69065V2.33453H116.962V2.69065H113.899V2.76979C114.456 2.96763 114.894 3.91727 115.132 4.58993L124.279 26.6295C124.287 26.6614 124.305 26.7159 124.328 26.787L124.329 26.7887L124.329 26.7892C124.421 27.0715 124.598 27.6129 124.598 28.054H125.115C125.115 27.8561 125.154 27.3022 125.512 26.4712L134.421 5.14389C134.58 4.7482 134.659 4.39209 134.659 4.07554C134.659 3.2446 134.103 2.69065 132.75 2.69065H129.33V2.33453H138V2.69065H137.523C136.25 2.69065 135.932 3.40288 135.216 5.14389L124.717 30.982L122.569 31.1403L112.03 5.14389L112.018 5.11541C111.272 3.35613 110.989 2.69065 109.684 2.69065H109.087Z" fill="white"/>
</svg>
