<svg width="24" height="24" viewBox="0 0 24 24" fill="none" xmlns="http://www.w3.org/2000/svg">
<path d="M12.0002 23.6666C5.55666 23.6666 0.333496 18.4435 0.333496 12C0.333496 5.55648 5.55666 0.333313 12.0002 0.333313C18.4437 0.333313 23.6668 5.55648 23.6668 12C23.6668 18.4435 18.4437 23.6666 12.0002 23.6666ZM8.37183 13.365L8.387 13.3568L9.402 16.7051C9.53266 17.068 9.71233 17.1333 9.9305 17.103C10.1498 17.0738 10.2653 16.956 10.4088 16.8183L11.7948 15.479L14.7698 17.6816C15.3135 17.9815 15.7043 17.8263 15.8397 17.1776L17.7728 8.05198C17.9863 7.20265 17.613 6.86198 16.9538 7.13265L5.59866 11.5193C4.824 11.8296 4.82866 12.2636 5.45866 12.4561L8.37183 13.3661V13.365Z" fill="#2F80ED"/>
</svg>
