<svg width="24" height="20" viewBox="0 0 24 20" fill="none" xmlns="http://www.w3.org/2000/svg">
<path d="M23.1337 3.58102C23.6668 5.66002 23.6668 10 23.6668 10C23.6668 10 23.6668 14.34 23.1337 16.419C22.8373 17.5682 21.9705 18.4724 20.8727 18.778C18.8788 19.3334 12.0002 19.3334 12.0002 19.3334C12.0002 19.3334 5.125 19.3334 3.12766 18.778C2.02516 18.4677 1.1595 17.5647 0.866663 16.419C0.333496 14.34 0.333496 10 0.333496 10C0.333496 10 0.333496 5.66002 0.866663 3.58102C1.163 2.43185 2.02983 1.52769 3.12766 1.22202C5.125 0.666687 12.0002 0.666687 12.0002 0.666687C12.0002 0.666687 18.8788 0.666687 20.8727 1.22202C21.9752 1.53235 22.8408 2.43535 23.1337 3.58102ZM9.66683 14.0834L16.6668 10L9.66683 5.91669V14.0834Z" fill="#2F80ED"/>
</svg>
