<svg width="26" height="26" viewBox="0 0 26 26" fill="none" xmlns="http://www.w3.org/2000/svg">
<g clip-path="url(#clip0_635_168)">
<path d="M5.41665 2.16663H20.5833C20.8706 2.16663 21.1462 2.28076 21.3493 2.48393C21.5525 2.68709 21.6666 2.96264 21.6666 3.24996V23.9882C21.6668 24.0851 21.6409 24.1802 21.5918 24.2637C21.5427 24.3471 21.472 24.4159 21.3873 24.4628C21.3026 24.5097 21.2068 24.533 21.11 24.5303C21.0132 24.5277 20.9188 24.4991 20.8368 24.4475L13 19.5325L5.16315 24.4465C5.08121 24.4979 4.98698 24.5265 4.89026 24.5293C4.79353 24.532 4.69784 24.5088 4.61313 24.462C4.52843 24.4152 4.4578 24.3466 4.40859 24.2633C4.35938 24.18 4.33338 24.085 4.33331 23.9882V3.24996C4.33331 2.96264 4.44745 2.68709 4.65061 2.48393C4.85378 2.28076 5.12933 2.16663 5.41665 2.16663Z" fill="#1A2B4B"/>
</g>
<defs>
<clipPath id="clip0_635_168">
<rect width="26" height="26" fill="white"/>
</clipPath>
</defs>
</svg>
