<svg width="26" height="26" viewBox="0 0 26 26" fill="none" xmlns="http://www.w3.org/2000/svg">
<g clip-path="url(#clip0_642_300)">
<path d="M23.8334 14.0822V21.6667C23.8334 21.954 23.7192 22.2295 23.5161 22.4327C23.3129 22.6359 23.0373 22.75 22.75 22.75H14.0834V14.0822H23.8334ZM11.9167 14.0822V22.75H3.25002C2.9627 22.75 2.68715 22.6359 2.48399 22.4327C2.28082 22.2295 2.16669 21.954 2.16669 21.6667V14.0822H11.9167ZM11.9167 3.25V11.9156H2.16669V4.33333C2.16669 4.04602 2.28082 3.77047 2.48399 3.5673C2.68715 3.36414 2.9627 3.25 3.25002 3.25H11.9167ZM22.75 3.25C23.0373 3.25 23.3129 3.36414 23.5161 3.5673C23.7192 3.77047 23.8334 4.04602 23.8334 4.33333V11.9156H14.0834V3.25H22.75Z" fill="#1A2B4B"/>
</g>
<defs>
<clipPath id="clip0_642_300">
<rect width="26" height="26" fill="white"/>
</clipPath>
</defs>
</svg>
