<svg width="84" height="84" viewBox="0 0 84 84" fill="none" xmlns="http://www.w3.org/2000/svg">
<path d="M39.5731 7.00682C39.2351 6.98122 38.886 7.02251 38.5443 7.1367C37.1688 7.59345 36.4247 9.08005 36.8832 10.4555C36.9217 10.5763 40.7684 21.5292 55.6137 18.416C55.6714 20.3095 56.0865 22.6516 57.35 25.0981C59.7458 29.7321 64.368 33.327 71.1107 35.7998C69.8315 40.5808 68.0879 50.7999 74.269 56.9809C74.7817 57.4937 75.4529 57.75 76.1249 57.75C76.7969 57.75 77.4699 57.4937 77.9809 56.9809C79.0064 55.9554 79.0064 54.2945 77.9809 53.269C72.2724 47.557 76.7887 35.1686 76.8324 35.0478C77.0862 34.3706 77.0485 33.6173 76.7265 32.9663C76.408 32.3153 75.8301 31.8262 75.1371 31.6162C68.4941 29.5932 64.0968 26.6218 62.0668 22.7876C60.1033 19.0776 61.0782 15.8175 61.1132 15.7055C61.4282 14.7623 61.1844 13.7208 60.4809 13.019C59.7756 12.3155 58.7341 12.0717 57.7943 12.3867C45.1331 16.6094 42.1591 9.60524 41.8563 8.77049C41.5046 7.75067 40.5871 7.0836 39.5731 7.00682ZM18.3441 22.6304C17.2142 22.6173 16.0744 22.7913 14.9706 23.1601C11.3026 24.3816 8.66115 27.5157 8.07315 31.3359L6.11465 44.0678C5.4724 48.2434 6.64146 52.5072 9.32071 55.771L21.5741 70.6904C24.9726 74.8134 29.9332 76.959 34.9452 76.959C38.7812 76.959 42.6474 75.6986 45.8656 73.1103L57.5277 63.0512C63.4322 58.3 64.8262 49.89 60.768 43.4902C60.7312 43.4342 60.692 43.3804 60.6518 43.3261L48.8358 27.5112C45.3288 22.8195 38.8962 21.5479 33.872 24.5649L32.0058 25.686L20.1044 36.1006C19.6056 36.5363 18.9926 36.75 18.3783 36.75C17.6468 36.75 16.9191 36.4461 16.3993 35.8511C15.4438 34.7608 15.5568 33.1049 16.6488 32.1494L24.8622 24.9614L23.7274 24.2368C22.0879 23.1955 20.2275 22.652 18.3441 22.6304Z" fill="#1A2B4B"/>
</svg>
