<svg width="16" height="18" viewBox="0 0 16 18" fill="none" xmlns="http://www.w3.org/2000/svg">
<path d="M3.31833 2.30667C4.64645 1.24255 6.29817 0.663952 8 0.666666C9.77083 0.666666 11.3983 1.28 12.6817 2.30667L13.8925 1.09583L15.0708 2.27417L13.86 3.485C14.9241 4.81312 15.5027 6.46484 15.5 8.16667V9H0.5V8.16667C0.5 6.39583 1.11333 4.76833 2.14 3.485L0.929167 2.275L2.1075 1.09667L3.31833 2.3075V2.30667ZM0.5 10.6667H15.5V16.5C15.5 16.721 15.4122 16.933 15.2559 17.0893C15.0996 17.2455 14.8877 17.3333 14.6667 17.3333H1.33333C1.11232 17.3333 0.900358 17.2455 0.744078 17.0893C0.587797 16.933 0.5 16.721 0.5 16.5V10.6667ZM5.5 6.5C5.72101 6.5 5.93297 6.4122 6.08926 6.25592C6.24554 6.09964 6.33333 5.88768 6.33333 5.66667C6.33333 5.44565 6.24554 5.23369 6.08926 5.07741C5.93297 4.92113 5.72101 4.83333 5.5 4.83333C5.27899 4.83333 5.06702 4.92113 4.91074 5.07741C4.75446 5.23369 4.66667 5.44565 4.66667 5.66667C4.66667 5.88768 4.75446 6.09964 4.91074 6.25592C5.06702 6.4122 5.27899 6.5 5.5 6.5ZM10.5 6.5C10.721 6.5 10.933 6.4122 11.0893 6.25592C11.2455 6.09964 11.3333 5.88768 11.3333 5.66667C11.3333 5.44565 11.2455 5.23369 11.0893 5.07741C10.933 4.92113 10.721 4.83333 10.5 4.83333C10.279 4.83333 10.067 4.92113 9.91074 5.07741C9.75446 5.23369 9.66667 5.44565 9.66667 5.66667C9.66667 5.88768 9.75446 6.09964 9.91074 6.25592C10.067 6.4122 10.279 6.5 10.5 6.5Z" fill="#2F80ED"/>
</svg>
