<svg width="84" height="84" viewBox="0 0 84 84" fill="none" xmlns="http://www.w3.org/2000/svg">
<path d="M42 8.75C30.5694 8.75 22.6233 11.5432 18.481 13.4976C15.7311 14.7947 14.0129 17.5854 14.0103 20.5898C14.0068 26.6736 14 40.3522 14 49C14 54.5671 17.0817 59.7093 20.8838 64.2544C24.6859 68.7995 29.3542 72.7885 33.1987 75.749C38.3789 79.7372 45.6362 79.7366 50.8149 75.7456C54.6568 72.785 59.3201 68.7993 63.1196 64.2544C66.9192 59.7096 70 54.5658 70 49V20.6035C70 17.5953 68.2831 14.7969 65.5259 13.4976C61.3807 11.5437 53.4306 8.75 42 8.75ZM31.3394 26.4482C33.2006 26.5264 35.26 27.0612 37.3311 28.4409C38.5368 29.2459 38.8641 30.8753 38.0591 32.0811C37.5533 32.8406 36.7186 33.25 35.8716 33.25C35.3711 33.25 34.8669 33.1083 34.4189 32.8091C30.6687 30.3101 26.8678 32.7828 26.8311 32.8091C25.6253 33.6141 23.9942 33.2868 23.1909 32.0811C22.3859 30.8753 22.7132 29.2459 23.9189 28.4409C24.109 28.3158 27.2447 26.2763 31.3394 26.4482ZM54.0894 26.4482C55.9508 26.5264 58.01 27.0612 60.0811 28.4409C61.2868 29.2459 61.6141 30.8753 60.8091 32.0811C60.3033 32.8406 59.4686 33.25 58.6216 33.25C58.1211 33.25 57.6169 33.1083 57.1689 32.8091C53.4204 30.3101 49.6178 32.7828 49.5811 32.8091C48.3753 33.6141 46.7459 33.2868 45.9409 32.0811C45.1359 30.8753 45.4632 29.2459 46.6689 28.4409C46.8578 28.3158 49.9943 26.2763 54.0894 26.4482ZM29.292 49.1709C29.6219 49.151 29.9684 49.1875 30.3276 49.2905C34.0674 50.3615 38.346 50.75 42 50.75C45.654 50.75 49.9326 50.3615 53.6724 49.2905C56.5459 48.4663 58.6958 51.9181 56.6973 54.1406C52.5795 58.7186 47.0505 63 42 63C36.9495 63 31.4205 58.7186 27.3027 54.1406C25.554 52.1959 26.983 49.31 29.292 49.1709Z" fill="#1A2B4B"/>
</svg>
