<svg width="14" height="19" viewBox="0 0 14 19" fill="none" xmlns="http://www.w3.org/2000/svg">
<path d="M6.16651 14H3.61734C3.36984 12.9392 2.25318 12.0717 1.79484 11.5C1.01 10.5194 0.518134 9.33707 0.375898 8.08915C0.233662 6.84123 0.446845 5.57852 0.990889 4.44646C1.53493 3.31441 2.38771 2.35907 3.45097 1.6905C4.51424 1.02192 5.74475 0.66731 7.00075 0.667511C8.25674 0.667712 9.48714 1.02272 10.5502 1.69163C11.6132 2.36055 12.4657 3.31616 13.0094 4.44839C13.5531 5.58062 13.7659 6.8434 13.6232 8.09127C13.4806 9.33914 12.9883 10.5213 12.2032 11.5017C11.7448 12.0725 10.6298 12.94 10.3823 14H7.83318V9.83334H6.16651V14ZM10.3332 15.6667V16.5C10.3332 16.942 10.1576 17.366 9.84502 17.6785C9.53246 17.9911 9.10854 18.1667 8.66651 18.1667H5.33318C4.89115 18.1667 4.46723 17.9911 4.15467 17.6785C3.84211 17.366 3.66651 16.942 3.66651 16.5V15.6667H10.3332Z" fill="#828282"/>
</svg>
