<svg width="84" height="84" viewBox="0 0 84 84" fill="none" xmlns="http://www.w3.org/2000/svg">
<path d="M14 14C12.5685 14 11.2849 14.8747 10.7529 16.2012L3.75291 33.6943C3.31891 34.7723 3.45055 35.9926 4.10155 36.9551C4.74905 37.9176 5.83448 38.4932 6.99998 38.4932H13.248C13.5735 38.4932 13.7651 38.6743 13.8701 38.8213C13.9751 38.9683 14.0743 39.2004 13.9658 39.5049L3.69823 68.8447C3.32373 69.9157 3.4949 71.0994 4.1494 72.0234C4.8039 72.9474 5.86598 73.5 6.99998 73.5H31.5C33.299 73.5 34.801 72.1371 34.9795 70.3486L36.7637 52.5H45.5C49.3257 52.5 52.5 49.3257 52.5 45.5V38.5H77C78.932 38.5 80.5 36.932 80.5 35V17.5C80.5 15.568 78.932 14 77 14H14ZM38.165 38.5H45.5V45.5H37.4678L38.165 38.5Z" fill="#1A2B4B"/>
</svg>
