<svg width="84" height="84" viewBox="0 0 84 84" fill="none" xmlns="http://www.w3.org/2000/svg">
<path d="M45.5 10.5C41.787 10.5 38.226 11.975 35.6005 14.6005C32.975 17.226 31.5 20.787 31.5 24.5C31.5 28.213 32.975 31.774 35.6005 34.3995C38.226 37.025 41.787 38.5 45.5 38.5C49.213 38.5 52.774 37.025 55.3995 34.3995C58.025 31.774 59.5 28.213 59.5 24.5C59.5 20.787 58.025 17.226 55.3995 14.6005C52.774 11.975 49.213 10.5 45.5 10.5ZM45.5 38.5H19.25H14.875C10.5333 38.5 7 42.0333 7 46.375V65.625C7 69.9668 10.5333 73.5 14.875 73.5H48.125C52.4668 73.5 56 69.9668 56 65.625V46.375C56 42.0333 52.4668 38.5 48.125 38.5H45.5ZM19.25 38.5C22.4989 38.5 25.6147 37.2094 27.9121 34.9121C30.2094 32.6147 31.5 29.4989 31.5 26.25C31.5 23.0011 30.2094 19.8853 27.9121 17.5879C25.6147 15.2906 22.4989 14 19.25 14C16.0011 14 12.8853 15.2906 10.5879 17.5879C8.29062 19.8853 7 23.0011 7 26.25C7 29.4989 8.29062 32.6147 10.5879 34.9121C12.8853 37.2094 16.0011 38.5 19.25 38.5ZM72.5669 38.6196C71.8035 38.6284 71.0429 38.8324 70.3691 39.2349L61.25 44.7139V65.5361L70.3691 71.0151C71.0691 71.4176 71.8375 71.627 72.625 71.627C73.36 71.627 74.1133 71.4514 74.7783 71.0664C76.1433 70.2964 77 68.827 77 67.252V42.998C77 41.423 76.1433 39.9536 74.7783 39.1836C74.0958 38.7986 73.3303 38.6109 72.5669 38.6196Z" fill="#1A2B4B"/>
</svg>
