<svg width="84" height="84" viewBox="0 0 84 84" fill="none" xmlns="http://www.w3.org/2000/svg">
<path d="M65.5253 13.4995C61.7628 11.725 53.704 8.75 42 8.75C30.2943 8.75 22.239 11.725 18.4835 13.4977C15.7675 14.777 14.0123 17.5595 14.0088 20.5905L14 47.25C14 57.4717 24.885 65.849 32.8317 71.967L33.1975 72.247C35.791 74.2455 38.899 75.243 42.0053 75.243C45.1133 75.243 48.223 74.2438 50.8148 72.2453L51.1805 71.9635C59.122 65.8473 70 57.47 70 47.25V20.6027C70 17.5665 68.243 14.777 65.5253 13.4995ZM22.75 32.5693C22.75 31.1203 23.926 29.9443 25.375 29.9443C25.4082 29.9443 29.9477 29.8655 34.419 26.8853C35.623 26.0785 37.2522 26.4058 38.059 27.6133C38.864 28.819 38.5368 30.4482 37.331 31.2532C31.486 35.1505 25.6217 35.1943 25.375 35.1943C23.926 35.1943 22.75 34.0182 22.75 32.5693ZM59.1377 52.9567C58.6495 53.7863 57.7728 54.25 56.8733 54.25C56.42 54.25 55.9615 54.1345 55.5433 53.8877C47.1905 48.972 36.8095 48.972 28.455 53.8877C27.2055 54.6245 25.5955 54.2062 24.8605 52.9567C24.1255 51.7072 24.542 50.0973 25.7915 49.3623C35.7892 43.484 48.2072 43.484 58.2032 49.3623C59.4562 50.0973 59.8727 51.7072 59.1377 52.9567ZM58.6267 35.1943C58.6005 35.1943 58.5778 35.1943 58.5515 35.1925C50.6415 34.9738 46.494 31.1412 46.3225 30.9785C45.269 29.9827 45.2218 28.3203 46.2158 27.2668C47.2098 26.2133 48.874 26.166 49.9275 27.16C50.0255 27.2493 52.9025 29.7832 58.6985 29.946C60.1475 29.9845 61.2885 31.1938 61.2483 32.6427C61.2098 34.0672 60.0425 35.1943 58.6267 35.1943Z" fill="#1A2B4B"/>
</svg>
