<svg width="14" height="18" viewBox="0 0 14 18" fill="none" xmlns="http://www.w3.org/2000/svg">
<path d="M1.16634 0.666672H12.833C13.054 0.666672 13.266 0.754469 13.4223 0.910749C13.5785 1.06703 13.6663 1.27899 13.6663 1.50001V16.5C13.6663 16.721 13.5785 16.933 13.4223 17.0893C13.266 17.2455 13.054 17.3333 12.833 17.3333H1.16634C0.945327 17.3333 0.733366 17.2455 0.577086 17.0893C0.420805 16.933 0.333008 16.721 0.333008 16.5V1.50001C0.333008 1.27899 0.420805 1.06703 0.577086 0.910749C0.733366 0.754469 0.945327 0.666672 1.16634 0.666672ZM4.49967 8.16667V5.66667L0.333008 9L4.49967 12.3333V9.83334H9.49967V8.16667H4.49967Z" fill="#828282"/>
</svg>
