<svg width="84" height="84" viewBox="0 0 84 84" fill="none" xmlns="http://www.w3.org/2000/svg">
<path d="M16.584 8.71248C15.8884 8.72335 15.2256 9.00986 14.7411 9.5091C14.2566 10.0083 13.9901 10.6795 14 11.3751V14.0001H11.375C11.0272 13.9952 10.6818 14.0594 10.359 14.1891C10.0363 14.3188 9.74246 14.5114 9.49474 14.7557C9.24702 14.9999 9.05031 15.2909 8.91605 15.6119C8.78179 15.9328 8.71265 16.2772 8.71265 16.6251C8.71265 16.973 8.78179 17.3174 8.91605 17.6383C9.05031 17.9592 9.24702 18.2503 9.49474 18.4945C9.74246 18.7387 10.0363 18.9313 10.359 19.061C10.6818 19.1907 11.0272 19.255 11.375 19.2501H14V21.8751C13.9951 22.2229 14.0594 22.5683 14.1891 22.8911C14.3188 23.2139 14.5114 23.5076 14.7556 23.7554C14.9999 24.0031 15.2909 24.1998 15.6118 24.3341C15.9327 24.4683 16.2772 24.5375 16.625 24.5375C16.9729 24.5375 17.3173 24.4683 17.6382 24.3341C17.9592 24.1998 18.2502 24.0031 18.4945 23.7554C18.7387 23.5076 18.9313 23.2139 19.061 22.8911C19.1907 22.5683 19.255 22.2229 19.25 21.8751V19.2501H21.875C22.2229 19.255 22.5682 19.1907 22.891 19.061C23.2138 18.9313 23.5076 18.7387 23.7553 18.4945C24.003 18.2503 24.1998 17.9592 24.334 17.6383C24.4683 17.3174 24.5374 16.973 24.5374 16.6251C24.5374 16.2772 24.4683 15.9328 24.334 15.6119C24.1998 15.2909 24.003 14.9999 23.7553 14.7557C23.5076 14.5114 23.2138 14.3188 22.891 14.1891C22.5682 14.0594 22.2229 13.9952 21.875 14.0001H19.25V11.3751C19.2551 11.0237 19.1895 10.675 19.0573 10.3494C18.9251 10.0239 18.7288 9.72819 18.4802 9.47989C18.2316 9.23159 17.9356 9.03572 17.6099 8.9039C17.2842 8.77208 16.9354 8.70699 16.584 8.71248ZM58.584 15.7125C57.8884 15.7233 57.2256 16.0099 56.7411 16.5091C56.2566 17.0083 55.9901 17.6795 56 18.3751V21.0001H53.375C53.0272 20.9952 52.6818 21.0594 52.359 21.1891C52.0363 21.3188 51.7425 21.5114 51.4947 21.7557C51.247 21.9999 51.0503 22.2909 50.916 22.6119C50.7818 22.9328 50.7126 23.2772 50.7126 23.6251C50.7126 23.973 50.7818 24.3174 50.916 24.6383C51.0503 24.9592 51.247 25.2503 51.4947 25.4945C51.7425 25.7387 52.0363 25.9313 52.359 26.061C52.6818 26.1907 53.0272 26.255 53.375 26.2501H56V28.8751C55.9951 29.2229 56.0594 29.5683 56.1891 29.8911C56.3188 30.2139 56.5114 30.5076 56.7556 30.7554C56.9999 31.0031 57.2909 31.1998 57.6118 31.3341C57.9327 31.4683 58.2772 31.5375 58.625 31.5375C58.9729 31.5375 59.3173 31.4683 59.6382 31.3341C59.9592 31.1998 60.2502 31.0031 60.4945 30.7554C60.7387 30.5076 60.9313 30.2139 61.061 29.8911C61.1907 29.5683 61.255 29.2229 61.25 28.8751V26.2501H63.875C64.2229 26.255 64.5682 26.1907 64.891 26.061C65.2138 25.9313 65.5076 25.7387 65.7553 25.4945C66.003 25.2503 66.1997 24.9592 66.334 24.6383C66.4683 24.3174 66.5374 23.973 66.5374 23.6251C66.5374 23.2772 66.4683 22.9328 66.334 22.6119C66.1997 22.2909 66.003 21.9999 65.7553 21.7557C65.5076 21.5114 65.2138 21.3188 64.891 21.1891C64.5682 21.0594 64.2229 20.9952 63.875 21.0001H61.25V18.3751C61.2551 18.0237 61.1895 17.675 61.0573 17.3494C60.9251 17.0239 60.7288 16.7282 60.4802 16.4799C60.2316 16.2316 59.9356 16.0357 59.6099 15.9039C59.2842 15.7721 58.9354 15.707 58.584 15.7125ZM29.856 26.356C28.5085 26.356 27.1591 26.8791 26.1441 27.8941C24.0966 29.9416 24.0966 33.2666 26.1441 35.3316L31.2539 40.4415L38.5889 32.9185L33.5816 27.8941C32.5491 26.8791 31.2035 26.356 29.856 26.356ZM42.3145 36.627L34.9829 44.1534L66.1685 75.3389C67.201 76.3714 68.5295 76.877 69.877 76.877C71.2245 76.877 72.5564 76.3714 73.5889 75.3389C75.6364 73.2914 75.6364 69.966 73.5889 67.9185L42.3145 36.627ZM23.584 52.4625C22.8884 52.4733 22.2256 52.7599 21.7411 53.2591C21.2566 53.7583 20.9901 54.4295 21 55.1251V57.7501H18.375C18.0272 57.7452 17.6818 57.8094 17.359 57.9391C17.0363 58.0688 16.7425 58.2614 16.4947 58.5057C16.247 58.7499 16.0503 59.0409 15.916 59.3619C15.7818 59.6828 15.7126 60.0272 15.7126 60.3751C15.7126 60.723 15.7818 61.0674 15.916 61.3883C16.0503 61.7092 16.247 62.0003 16.4947 62.2445C16.7425 62.4887 17.0363 62.6813 17.359 62.811C17.6818 62.9407 18.0272 63.005 18.375 63.0001H21V65.6251C20.9951 65.9729 21.0594 66.3183 21.1891 66.6411C21.3188 66.9639 21.5114 67.2576 21.7556 67.5054C21.9999 67.7531 22.2909 67.9498 22.6118 68.0841C22.9327 68.2183 23.2772 68.2875 23.625 68.2875C23.9729 68.2875 24.3173 68.2183 24.6382 68.0841C24.9592 67.9498 25.2502 67.7531 25.4945 67.5054C25.7387 67.2576 25.9313 66.9639 26.061 66.6411C26.1907 66.3183 26.255 65.9729 26.25 65.6251V63.0001H28.875C29.2229 63.005 29.5682 62.9407 29.891 62.811C30.2138 62.6813 30.5076 62.4887 30.7553 62.2445C31.003 62.0003 31.1998 61.7092 31.334 61.3883C31.4683 61.0674 31.5374 60.723 31.5374 60.3751C31.5374 60.0272 31.4683 59.6828 31.334 59.3619C31.1998 59.0409 31.003 58.7499 30.7553 58.5057C30.5076 58.2614 30.2138 58.0688 29.891 57.9391C29.5682 57.8094 29.2229 57.7452 28.875 57.7501H26.25V55.1251C26.2551 54.7737 26.1895 54.425 26.0573 54.0994C25.9251 53.7739 25.7288 53.4782 25.4802 53.2299C25.2316 52.9816 24.9356 52.7857 24.6099 52.6539C24.2842 52.5221 23.9353 52.457 23.584 52.4625Z" fill="#1A2B4B"/>
</svg>
