<svg width="84" height="84" viewBox="0 0 84 84" fill="none" xmlns="http://www.w3.org/2000/svg">
<path d="M33.8721 7C25.3006 7 21.8944 18.3141 19.7559 26.0176C10.5159 29.5036 10.5 32.5977 10.5 33.7422C10.5 34.1272 10.5667 34.5466 10.6367 34.9316C11.4067 37.8016 14.9097 40.215 19.8447 42C20.7547 42.35 21.735 42.6634 22.75 42.9434C23.765 43.2584 24.8164 43.505 25.9014 43.75C29.1214 44.485 32.6528 45.0081 36.2578 45.2881C38.1478 45.4281 40.075 45.5 42 45.5C43.925 45.5 45.8522 45.4281 47.7422 45.2881C51.3472 45.0081 54.8786 44.485 58.0986 43.75C59.1836 43.505 60.235 43.2584 61.25 42.9434C62.265 42.6634 63.2453 42.35 64.1553 42C69.0903 40.215 72.5933 37.8016 73.3633 34.9316C73.4333 34.5466 73.5 34.1272 73.5 33.7422C73.5 32.5942 73.4781 29.4969 64.2031 26.0039L63.5947 24.1309C61.0047 16.1019 58.0694 7 50.1279 7C48.1994 7 46.7201 7.2847 45.4111 7.5332C44.2596 7.7537 43.267 7.94336 42 7.94336C40.7785 7.94336 39.9068 7.77071 38.8008 7.55371C37.4848 7.29121 35.9966 7 33.8721 7ZM16.167 48.0566C16.867 50.6816 18.6197 54.0061 21.5947 55.3711C24.5697 66.2211 32.375 77 42 77C51.625 77 59.4303 66.2211 62.4053 55.3711C65.3803 54.0061 67.133 50.6816 67.833 48.0566C64.228 49.5266 60.2027 50.5422 56.1777 51.2422L56.0684 51.7617C54.1784 60.5817 48.09 70 42 70V64.9277L44.8711 59.1855L41.1934 52.5C34.1234 52.43 24.077 51.2766 16.167 48.0566Z" fill="#1A2B4B"/>
</svg>
