<svg width="84" height="84" viewBox="0 0 84 84" fill="none" xmlns="http://www.w3.org/2000/svg">
<path d="M74.4913 8.75341C73.9473 8.72891 73.3951 8.87241 72.9191 9.19091C68.9501 11.8369 57.0567 14.8665 52.8077 15.8115C52.3475 15.913 51.9203 16.1407 51.5773 16.4609L22.7023 43.5859C22.1843 44.0724 21.8874 44.7485 21.8751 45.459C21.8646 46.1695 22.1419 46.8537 22.6442 47.3559L24.2438 48.9556L7.72473 64.0972C6.30198 65.3992 5.49553 67.1812 5.45178 69.1079C5.41153 71.0382 6.13931 72.8511 7.50256 74.2143C9.67431 76.3861 12.5685 77.5503 15.5348 77.5503C16.6898 77.5503 17.8528 77.3759 18.9938 77.0137C25.481 74.9504 30.559 69.8362 32.5768 63.335L34.0089 58.7173L35.7692 60.4775C36.2749 60.9885 36.9495 61.25 37.6285 61.25C38.1168 61.25 38.6112 61.113 39.047 60.833C41.784 59.0725 44.3595 57.125 46.7955 55.0601C46.1445 56.4006 45.5001 57.9075 45.5001 58.625C45.5001 60.074 46.6761 61.25 48.1251 61.25C49.5741 61.25 50.7501 60.074 50.7501 58.625C50.7501 57.5837 49.4008 54.8888 48.6378 53.4468C67.1441 36.7693 76.3796 13.4644 76.8224 12.3286C77.2371 11.2611 76.9117 10.0434 76.0192 9.32763C75.572 8.96888 75.0354 8.77791 74.4913 8.75341ZM53.84 21.54C54.092 22.0003 54.2501 22.7045 54.2501 23.625C54.2501 27.2405 53.1298 28.5902 51.2731 30.8267C48.6078 34.0362 44.9802 38.4317 43.8322 50.6782C41.9649 52.2935 40.0093 53.8271 37.9601 55.2446L28.2701 45.5581L53.84 21.54ZM43.7501 64.5039C43.1674 64.5039 42.584 64.7896 42.2428 65.3618C41.2943 66.9508 40.2501 68.943 40.2501 70C40.2501 71.9337 41.8181 73.5 43.7501 73.5C45.6821 73.5 47.2501 71.9337 47.2501 70C47.2501 68.943 46.2059 66.9508 45.2574 65.3618C44.9162 64.7896 44.3329 64.5039 43.7501 64.5039Z" fill="#1A2B4B"/>
</svg>
