<svg width="20" height="20" viewBox="0 0 20 20" fill="none" xmlns="http://www.w3.org/2000/svg">
<g clip-path="url(#clip0_483_113)">
<path d="M4.16683 1.66669H15.8335C16.0545 1.66669 16.2665 1.75448 16.4228 1.91076C16.579 2.06704 16.6668 2.27901 16.6668 2.50002V18.4525C16.6669 18.527 16.647 18.6002 16.6092 18.6644C16.5715 18.7286 16.5171 18.7815 16.4519 18.8176C16.3868 18.8537 16.3131 18.8716 16.2386 18.8696C16.1641 18.8675 16.0916 18.8455 16.0285 18.8059L10.0002 15.025L3.97183 18.805C3.9088 18.8446 3.83632 18.8666 3.76191 18.8687C3.68751 18.8708 3.6139 18.8529 3.54874 18.817C3.48358 18.781 3.42925 18.7282 3.3914 18.6641C3.35355 18.6 3.33355 18.527 3.3335 18.4525V2.50002C3.3335 2.27901 3.42129 2.06704 3.57757 1.91076C3.73385 1.75448 3.94582 1.66669 4.16683 1.66669ZM15.0002 3.33335H5.00016V16.1934L10.0002 13.0592L15.0002 16.1934V3.33335Z" fill="white"/>
</g>
<defs>
<clipPath id="clip0_483_113">
<rect width="20" height="20" fill="white"/>
</clipPath>
</defs>
</svg>
