<svg width="20" height="20" viewBox="0 0 20 20" fill="none" xmlns="http://www.w3.org/2000/svg">
<g clip-path="url(#clip0_483_94)">
<path d="M12.8449 4.16667H17.5065C17.9632 4.16667 18.3332 4.5375 18.3332 5V16.6667C18.3332 17.1267 17.954 17.5 17.5065 17.5H2.49319C2.38413 17.4998 2.27618 17.478 2.17555 17.436C2.07492 17.394 1.98358 17.3325 1.90677 17.255C1.82996 17.1776 1.7692 17.0858 1.72797 16.9848C1.68674 16.8838 1.66586 16.7757 1.66652 16.6667V5C1.66652 4.54 2.04569 4.16667 2.49319 4.16667H7.15485L5.04152 2.05333L6.21985 0.875L9.51152 4.16667H10.4882L13.7799 0.875L14.9582 2.05333L12.8449 4.16667ZM3.33319 5.83333V15.8333H16.6665V5.83333H3.33319Z" fill="white"/>
</g>
<defs>
<clipPath id="clip0_483_94">
<rect width="20" height="20" fill="white"/>
</clipPath>
</defs>
</svg>
