<svg width="16" height="20" viewBox="0 0 16 20" fill="none" xmlns="http://www.w3.org/2000/svg">
<path d="M7.68745 6.01833C6.95745 6.01833 5.82745 5.18833 4.63745 5.21833C3.06745 5.23833 1.62745 6.12833 0.81745 7.53833C-0.81255 10.3683 0.39745 14.5483 1.98745 16.8483C2.76745 17.9683 3.68745 19.2283 4.90745 19.1883C6.07745 19.1383 6.51745 18.4283 7.93745 18.4283C9.34745 18.4283 9.74745 19.1883 10.9874 19.1583C12.2474 19.1383 13.0474 18.0183 13.8174 16.8883C14.7074 15.5883 15.0774 14.3283 15.0975 14.2583C15.0675 14.2483 12.6475 13.3183 12.6175 10.5183C12.5975 8.17833 14.5274 7.05833 14.6174 7.00833C13.5175 5.39833 11.8274 5.21833 11.2374 5.17833C9.69745 5.05833 8.40745 6.01833 7.68745 6.01833ZM10.2874 3.65833C10.9375 2.87833 11.3674 1.78833 11.2474 0.708328C10.3174 0.748328 9.19745 1.32833 8.52745 2.10833C7.92745 2.79833 7.40745 3.90833 7.54745 4.96833C8.57745 5.04833 9.63745 4.43833 10.2874 3.65833Z" fill="#2F80ED"/>
</svg>
