<svg width="84" height="84" viewBox="0 0 84 84" fill="none" xmlns="http://www.w3.org/2000/svg">
<path d="M42.834 12.2124C42.139 12.2232 41.4767 12.5093 40.9923 13.0078C40.5079 13.5063 40.2409 14.1765 40.25 14.8715C40.25 14.8727 40.25 14.8738 40.25 14.875V28.8715V56.352C37.9784 54.9881 35.2152 54.2505 32.375 54.25C28.894 54.25 25.5556 55.3562 23.0942 57.3253C20.6328 59.2945 19.25 61.9652 19.25 64.75C19.25 67.5347 20.6328 70.2054 23.0942 72.1746C25.5556 74.1437 28.894 75.25 32.375 75.25C34.1492 75.2489 35.9048 74.9601 37.5355 74.401C39.1663 73.8418 40.6384 73.024 41.863 71.9969C43.0875 70.9698 44.039 69.7547 44.6601 68.4251C45.2811 67.0955 45.5587 65.679 45.4761 64.2612C45.4935 64.1332 45.5015 64.0041 45.5 63.875V32.2793L63.2051 36.9345C63.4256 36.9923 63.651 37.0234 63.875 37.0234C64.449 37.0234 65.0125 36.837 65.478 36.4765C66.122 35.983 66.5 35.2121 66.5 34.3984V24.5888C66.5 20.9068 64.0084 17.7623 60.4297 16.9223L43.9619 12.4516C43.6083 12.2893 43.223 12.2075 42.834 12.2124Z" fill="#1A2B4B"/>
</svg>
