<svg width="17" height="18" viewBox="0 0 17 18" fill="none" xmlns="http://www.w3.org/2000/svg">
<path d="M13.8333 3.99999H7.16667C6.94565 3.99999 6.73369 4.08779 6.57741 4.24407C6.42113 4.40035 6.33333 4.61231 6.33333 4.83332V15.6667H1.33333C1.11232 15.6667 0.900358 15.5789 0.744078 15.4226C0.587797 15.2663 0.5 15.0543 0.5 14.8333V1.49999C0.5 1.27898 0.587797 1.06701 0.744078 0.910734C0.900358 0.754454 1.11232 0.666656 1.33333 0.666656H13C13.221 0.666656 13.433 0.754454 13.5893 0.910734C13.7455 1.06701 13.8333 1.27898 13.8333 1.49999V3.99999ZM8.83333 5.66666H15.5C15.721 5.66666 15.933 5.75445 16.0893 5.91073C16.2455 6.06701 16.3333 6.27898 16.3333 6.49999V16.5C16.3333 16.721 16.2455 16.933 16.0893 17.0892C15.933 17.2455 15.721 17.3333 15.5 17.3333H8.83333C8.61232 17.3333 8.40036 17.2455 8.24408 17.0892C8.0878 16.933 8 16.721 8 16.5V6.49999C8 6.27898 8.0878 6.06701 8.24408 5.91073C8.40036 5.75445 8.61232 5.66666 8.83333 5.66666Z" fill="#828282"/>
</svg>
