<svg width="102" height="105" viewBox="0 0 102 105" fill="none" xmlns="http://www.w3.org/2000/svg">
<path d="M74.7278 28.8123C74.7787 29.1185 74.8264 29.4262 74.8709 29.7356C75.4994 29.1768 76.1582 28.9129 76.8013 29.0201C78.9977 29.3863 80.1922 33.9398 79.4697 39.1881C78.7376 44.4458 76.3678 48.4078 74.1618 48.0417C73.9932 48.0136 73.8304 47.9607 73.674 47.8848C71.7827 54.449 68.3689 59.9865 64.0181 63.7071V67.3749C79.1368 68.9785 92.3655 73.2546 101.76 79.2029C90.4315 94.5722 72.1091 104.59 51.0605 104.59C30.012 104.59 11.4199 94.4314 0.120117 78.8743C9.63987 72.9996 22.9346 68.81 38.0855 67.2979V63.7098C33.7344 59.9904 30.3202 54.454 28.4281 47.8908C28.2755 47.9635 28.1169 48.0143 27.9528 48.0417C25.7467 48.4078 23.377 44.4458 22.6449 39.1881C21.9224 33.9398 23.1169 29.3863 25.3133 29.0201C25.8079 28.938 26.3108 29.0735 26.8016 29.3924C26.6705 28.5485 26.5395 27.7046 26.4085 26.8607C26.0015 24.2389 25.5945 21.6171 25.1851 18.993C24.8864 17.0871 24.6071 15.0779 25.3199 13.2846C26.0328 11.4914 28.1232 10.0549 29.9728 10.7309C29.231 7.07868 33.3733 4.38411 36.9857 3.17297C43.0354 1.145 49.5185 0.11224 55.8572 0.910282C62.1958 1.70832 68.39 4.44045 72.6671 9.07848C74.0158 10.5431 75.1814 12.2143 75.8268 14.0827C77.0695 17.6786 76.2796 21.6124 75.48 25.321C75.2293 26.4837 74.9785 27.6478 74.7278 28.8123Z" fill="#2F80ED"/>
</svg>
