<svg width="4" height="5" viewBox="0 0 4 5" fill="none" xmlns="http://www.w3.org/2000/svg">
<path d="M2 4.39773C1.65625 4.39773 1.34233 4.31392 1.05824 4.14631C0.774148 3.97585 0.546875 3.74858 0.37642 3.46449C0.208807 3.1804 0.125 2.86648 0.125 2.52273C0.125 2.17614 0.208807 1.86222 0.37642 1.58097C0.546875 1.29687 0.774148 1.07102 1.05824 0.903409C1.34233 0.732954 1.65625 0.647727 2 0.647727C2.34659 0.647727 2.66051 0.732954 2.94176 0.903409C3.22585 1.07102 3.4517 1.29687 3.61932 1.58097C3.78977 1.86222 3.875 2.17614 3.875 2.52273C3.875 2.86648 3.78977 3.1804 3.61932 3.46449C3.4517 3.74858 3.22585 3.97585 2.94176 4.14631C2.66051 4.31392 2.34659 4.39773 2 4.39773Z" fill="#2F80ED"/>
</svg>
