<svg width="84" height="84" viewBox="0 0 84 84" fill="none" xmlns="http://www.w3.org/2000/svg">
<path d="M69.1233 12.25H14.8733C9.56729 12.25 5.24829 16.5673 5.24829 21.875V62.125C5.24829 67.4328 9.56729 71.75 14.8733 71.75H69.1233C74.4293 71.75 78.7483 67.4328 78.7483 62.125V21.875C78.7483 16.5673 74.4293 12.25 69.1233 12.25ZM44.6233 22.75C44.6233 21.784 45.4073 21 46.3733 21H48.1233C49.0893 21 49.8733 21.784 49.8733 22.75V24.5C49.8733 25.466 49.0893 26.25 48.1233 26.25H46.3733C45.4073 26.25 44.6233 25.466 44.6233 24.5V22.75ZM34.1233 22.75C34.1233 21.784 34.9073 21 35.8733 21H37.6233C38.5893 21 39.3733 21.784 39.3733 22.75V24.5C39.3733 25.466 38.5893 26.25 37.6233 26.25H35.8733C34.9073 26.25 34.1233 25.466 34.1233 24.5V22.75ZM18.3733 61.25C18.3733 62.216 17.5893 63 16.6233 63H14.8733C13.9073 63 13.1233 62.216 13.1233 61.25V59.5C13.1233 58.534 13.9073 57.75 14.8733 57.75H16.6233C17.5893 57.75 18.3733 58.534 18.3733 59.5V61.25ZM18.3733 24.5C18.3733 25.466 17.5893 26.25 16.6233 26.25H14.8733C13.9073 26.25 13.1233 25.466 13.1233 24.5V22.75C13.1233 21.784 13.9073 21 14.8733 21H16.6233C17.5893 21 18.3733 21.784 18.3733 22.75V24.5ZM28.8733 61.25C28.8733 62.216 28.0893 63 27.1233 63H25.3733C24.4073 63 23.6233 62.216 23.6233 61.25V59.5C23.6233 58.534 24.4073 57.75 25.3733 57.75H27.1233C28.0893 57.75 28.8733 58.534 28.8733 59.5V61.25ZM28.8733 24.5C28.8733 25.466 28.0893 26.25 27.1233 26.25H25.3733C24.4073 26.25 23.6233 25.466 23.6233 24.5V22.75C23.6233 21.784 24.4073 21 25.3733 21H27.1233C28.0893 21 28.8733 21.784 28.8733 22.75V24.5ZM39.3733 61.25C39.3733 62.216 38.5893 63 37.6233 63H35.8733C34.9073 63 34.1233 62.216 34.1233 61.25V59.5C34.1233 58.534 34.9073 57.75 35.8733 57.75H37.6233C38.5893 57.75 39.3733 58.534 39.3733 59.5V61.25ZM49.8733 61.25C49.8733 62.216 49.0893 63 48.1233 63H46.3733C45.4073 63 44.6233 62.216 44.6233 61.25V59.5C44.6233 58.534 45.4073 57.75 46.3733 57.75H48.1233C49.0893 57.75 49.8733 58.534 49.8733 59.5V61.25ZM43.806 51.7247C43.3598 52.2217 42.721 52.5035 42.0543 52.5C41.3858 52.4965 40.7505 52.2077 40.3095 51.7055C37.1263 48.0847 30.681 40.7523 30.681 40.7523C29.8708 39.6953 29.2233 38.486 29.2233 36.9757C29.2233 33.6525 32.137 30.933 35.6983 30.933C37.1928 30.933 40.0103 32.1283 41.4208 34.6115C41.5398 34.8477 41.783 34.9948 42.0473 34.993C42.3115 34.9913 42.553 34.839 42.6685 34.6028C44.086 32.1755 47.1625 30.9347 48.6483 30.9347C52.2095 30.9347 55.1233 33.6542 55.1233 36.9775C55.1233 38.3372 54.6368 39.697 53.6655 40.754C53.6655 40.7523 47.054 48.1092 43.806 51.7247ZM60.3733 61.25C60.3733 62.216 59.5893 63 58.6233 63H56.8733C55.9073 63 55.1233 62.216 55.1233 61.25V59.5C55.1233 58.534 55.9073 57.75 56.8733 57.75H58.6233C59.5893 57.75 60.3733 58.534 60.3733 59.5V61.25ZM60.3733 24.5C60.3733 25.466 59.5893 26.25 58.6233 26.25H56.8733C55.9073 26.25 55.1233 25.466 55.1233 24.5V22.75C55.1233 21.784 55.9073 21 56.8733 21H58.6233C59.5893 21 60.3733 21.784 60.3733 22.75V24.5ZM70.8733 61.25C70.8733 62.216 70.0893 63 69.1233 63H67.3733C66.4073 63 65.6233 62.216 65.6233 61.25V59.5C65.6233 58.534 66.4073 57.75 67.3733 57.75H69.1233C70.0893 57.75 70.8733 58.534 70.8733 59.5V61.25ZM70.8733 24.5C70.8733 25.466 70.0893 26.25 69.1233 26.25H67.3733C66.4073 26.25 65.6233 25.466 65.6233 24.5V22.75C65.6233 21.784 66.4073 21 67.3733 21H69.1233C70.0893 21 70.8733 21.784 70.8733 22.75V24.5Z" fill="#1A2B4B"/>
</svg>
