<svg width="16" height="19" viewBox="0 0 16 19" fill="none" xmlns="http://www.w3.org/2000/svg">
<path d="M6.99967 11.6666V18.3333H0.333008C0.333008 16.5652 1.03539 14.8695 2.28563 13.6193C3.53587 12.369 5.23156 11.6666 6.99967 11.6666ZM6.99967 10.8333C4.23717 10.8333 1.99967 8.59581 1.99967 5.83331C1.99967 3.07081 4.23717 0.833313 6.99967 0.833313C9.76217 0.833313 11.9997 3.07081 11.9997 5.83331C11.9997 8.59581 9.76217 10.8333 6.99967 10.8333ZM9.16217 15.6766C9.05651 15.232 9.05651 14.7688 9.16217 14.3241L8.33551 13.8466L9.16884 12.4033L9.99551 12.8808C10.3273 12.5665 10.7284 12.3347 11.1663 12.2041V11.25H12.833V12.2041C13.2763 12.3358 13.6763 12.5708 14.0038 12.8808L14.8305 12.4033L15.6638 13.8466L14.8372 14.3241C14.9427 14.7685 14.9427 15.2314 14.8372 15.6758L15.6638 16.1533L14.8305 17.5966L14.0038 17.1191C13.672 17.4334 13.271 17.6652 12.833 17.7958V18.75H11.1663V17.7958C10.7284 17.6652 10.3273 17.4334 9.99551 17.1191L9.16884 17.5966L8.33551 16.1533L9.16217 15.6766ZM11.9997 14.1666C11.7787 14.1666 11.5667 14.2544 11.4104 14.4107C11.2541 14.567 11.1663 14.779 11.1663 15C11.1663 15.221 11.2541 15.433 11.4104 15.5892C11.5667 15.7455 11.7787 15.8333 11.9997 15.8333C12.2207 15.8333 12.4327 15.7455 12.5889 15.5892C12.7452 15.433 12.833 15.221 12.833 15C12.833 14.779 12.7452 14.567 12.5889 14.4107C12.4327 14.2544 12.2207 14.1666 11.9997 14.1666Z" fill="#2F80ED"/>
</svg>
