<svg width="84" height="84" viewBox="0 0 84 84" fill="none" xmlns="http://www.w3.org/2000/svg">
<path d="M68.6158 15.3843C63.966 10.7328 56.7718 9.32758 48.3543 11.4258C40.4145 13.4068 32.214 18.3208 25.27 25.2683C18.3225 32.2141 13.4085 40.4128 11.4275 48.3526C9.32928 56.7701 10.7345 63.9643 15.386 68.6141C18.6288 71.8586 23.107 73.5228 28.3745 73.5228C30.6618 73.5228 33.0995 73.2078 35.6475 72.5726C43.5873 70.5916 51.7878 65.6776 58.7318 58.7301C65.6793 51.7843 70.5933 43.5856 72.5743 35.6458C74.6725 27.2301 73.2673 20.0341 68.6158 15.3843ZM55.2318 34.0183C56.2573 35.0438 56.2573 36.7046 55.2318 37.7301C54.719 38.2446 54.047 38.5001 53.375 38.5001C52.703 38.5001 52.031 38.2446 51.5183 37.7318L49.875 36.0868L44.8368 41.1251L46.48 42.7683C47.5055 43.7938 47.5055 45.4546 46.48 46.4801C45.969 46.9946 45.297 47.2501 44.625 47.2501C43.953 47.2501 43.281 46.9946 42.7683 46.4818L41.125 44.8368L36.0868 49.8751L37.73 51.5183C38.7555 52.5438 38.7555 54.2046 37.73 55.2301C37.219 55.7446 36.547 56.0001 35.875 56.0001C35.203 56.0001 34.531 55.7446 34.0183 55.2318L32.375 53.5868L30.7318 55.2301C30.219 55.7446 29.547 56.0001 28.875 56.0001C28.203 56.0001 27.531 55.7446 27.0183 55.2318C25.9928 54.2063 25.9928 52.5456 27.0183 51.5201L28.6615 49.8768L27.0183 48.2336C25.9928 47.2081 25.9928 45.5473 27.0183 44.5218C28.0438 43.4963 29.7045 43.4963 30.73 44.5218L32.3733 46.1651L37.4115 41.1268L35.7683 39.4836C34.7428 38.4581 34.7428 36.7973 35.7683 35.7718C36.7938 34.7463 38.4545 34.7463 39.48 35.7718L41.1233 37.4151L46.1615 32.3768L44.5183 30.7336C43.4928 29.7081 43.4928 28.0473 44.5183 27.0218C45.5438 25.9963 47.2045 25.9963 48.23 27.0218L49.8733 28.6651L51.5165 27.0218C52.542 25.9963 54.2028 25.9963 55.2283 27.0218C56.2538 28.0473 56.2538 29.7081 55.2283 30.7336L53.5868 32.3751L55.2318 34.0183Z" fill="#1A2B4B"/>
</svg>
