<svg width="84" height="84" viewBox="0 0 84 84" fill="none" xmlns="http://www.w3.org/2000/svg">
<path d="M42 5.25C21.7193 5.25 7 17.8342 7 35.175C7 43.1445 9.35375 49.7438 14 54.8135V56.875C14 63.8312 19.4373 69.5397 26.2868 69.9738H28V71.75C28 75.6158 31.1343 78.75 35 78.75H49C52.8657 78.75 56 75.6158 56 71.75V69.9738H57.7132C64.5628 69.5397 70 63.8312 70 56.875V54.8117C74.6462 49.7402 77 43.141 77 35.175C77 17.8342 62.2808 5.25 42 5.25ZM37.0265 62.7007L39.6515 57.4507C40.096 56.5617 41.006 56 42 56C42.994 56 43.904 56.5617 44.3485 57.4507L46.9735 62.7007C47.3795 63.5145 47.3358 64.4805 46.8597 65.254C46.3802 66.0292 45.535 66.5 44.625 66.5H39.375C38.465 66.5 37.6198 66.0293 37.142 65.2558C36.6643 64.4805 36.6205 63.5145 37.0265 62.7007ZM24.5 49.875C24.5 46.4922 27.2423 43.75 30.625 43.75C34.0077 43.75 36.75 46.4922 36.75 49.875C36.75 53.2578 34.0077 56 30.625 56C27.2423 56 24.5 53.2578 24.5 49.875ZM53.375 56C49.9922 56 47.25 53.2578 47.25 49.875C47.25 46.4922 49.9922 43.75 53.375 43.75C56.7578 43.75 59.5 46.4922 59.5 49.875C59.5 53.2578 56.7578 56 53.375 56Z" fill="#1A2B4B"/>
</svg>
